<svg width="408" height="413" viewBox="0 0 408 413" fill="none" xmlns="http://www.w3.org/2000/svg">
<path d="M263.543 398.275L152.256 403.803L155.417 282.88L42.0716 317.886L207.044 8.6772L360.427 324.748L254.984 285.026L263.543 398.275Z" fill="#0A2441"/>
<path d="M263.543 398.275L263.934 406.942L272.871 406.498L272.198 397.582L263.543 398.275ZM152.256 403.803L143.58 403.616L143.336 412.932L152.647 412.469L152.256 403.803ZM155.417 282.88L164.093 283.067L164.408 271.033L152.89 274.59L155.417 282.88ZM42.0716 317.886L34.4179 313.829L24.5229 332.376L44.5985 326.176L42.0716 317.886ZM207.044 8.6772L214.856 4.86061C213.434 1.92937 210.483 0.0516747 207.219 0.00103428C203.955 -0.0496061 200.93 1.73538 199.391 4.62066L207.044 8.6772ZM360.427 324.748L357.334 332.869L377.767 340.567L368.238 320.931L360.427 324.748ZM254.984 285.026L258.077 276.904L245.3 272.091L246.33 285.719L254.984 285.026ZM263.543 398.275L263.152 389.609L151.865 395.136L152.256 403.803L152.647 412.469L263.934 406.942L263.543 398.275ZM152.256 403.803L160.932 403.99L164.093 283.067L155.417 282.88L146.741 282.693L143.58 403.616L152.256 403.803ZM155.417 282.88L152.89 274.59L39.5447 309.596L42.0716 317.886L44.5985 326.176L157.944 291.17L155.417 282.88ZM42.0716 317.886L49.7252 321.942L214.698 12.7337L207.044 8.6772L199.391 4.62066L34.4179 313.829L42.0716 317.886ZM207.044 8.6772L199.232 12.4938L352.615 328.564L360.427 324.748L368.238 320.931L214.856 4.86061L207.044 8.6772ZM360.427 324.748L363.519 316.626L258.077 276.904L254.984 285.026L251.892 293.148L357.334 332.869L360.427 324.748ZM254.984 285.026L246.33 285.719L254.889 398.968L263.543 398.275L272.198 397.582L263.639 284.333L254.984 285.026Z" fill="#E86200"/>
<path d="M217.053 177.085C214.894 163.792 209.803 154.458 203.879 154.458C197.954 154.458 192.863 163.792 190.705 177.085H217.053ZM189.588 191.375C189.588 194.68 189.767 197.851 190.079 200.902H217.663C217.976 197.851 218.154 194.68 218.154 191.375C218.154 188.071 217.976 184.9 217.663 181.848H190.079C189.767 184.9 189.588 188.071 189.588 191.375ZM237.923 177.085C233.665 166.977 225.046 159.162 214.403 156.007C218.035 161.038 220.536 168.615 221.846 177.085H237.923ZM193.339 156.007C182.711 159.162 174.077 166.977 169.835 177.085H185.911C187.207 168.615 189.707 161.038 193.339 156.007ZM239.515 181.848H222.441C222.754 184.974 222.933 188.175 222.933 191.375C222.933 194.576 222.754 197.776 222.441 200.902H239.501C240.319 197.851 240.781 194.68 240.781 191.375C240.781 188.071 240.319 184.9 239.515 181.848ZM184.825 191.375C184.825 188.175 185.003 184.974 185.316 181.848H168.242C167.438 184.9 166.962 188.071 166.962 191.375C166.962 194.68 167.438 197.851 168.242 200.902H185.301C185.003 197.776 184.825 194.576 184.825 191.375ZM190.705 205.666C192.863 218.959 197.954 228.292 203.879 228.292C209.803 228.292 214.894 218.959 217.053 205.666H190.705ZM214.418 226.744C225.046 223.588 233.68 215.773 237.937 205.666H221.861C220.551 214.136 218.05 221.713 214.418 226.744ZM169.835 205.666C174.092 215.773 182.711 223.588 193.354 226.744C189.722 221.713 187.221 214.136 185.911 205.666H169.835Z" fill="#E86200"/>
</svg>
